<?xml version="1.0" encoding="iso-8859-1"?>
<!-- Uploaded to: SVG Repo, www.svgrepo.com, Generator: SVG Repo Mixer Tools -->
<svg version="1.1" id="Layer_1" xmlns="http://www.w3.org/2000/svg" xmlns:xlink="http://www.w3.org/1999/xlink" 
	 viewBox="0 0 512 512" xml:space="preserve">
<circle style="fill:#34495E;" cx="256" cy="256" r="256"/>
<path style="fill:#203549;" d="M501.01,330.296l-119.058-119.06l-1.651-1.644c-0.069-0.074-0.105-0.113-0.182-0.148
	c-1.201-0.804-2.634-1.28-4.165-1.28h-12.088l-23.132-23.135v-0.018h-4.129l-39.575-39.57h-77.166h-47.104v11.338l-8.225,1.713
	h-0.077v49.667h-28.416c-4.096,0-7.424,3.328-7.424,7.424v17.59c0,0.481,0.056,0.945,0.141,1.393
	c0.036,0.172,0.095,0.333,0.141,0.502c0.069,0.269,0.148,0.543,0.253,0.804c0.064,0.164,0.148,0.323,0.225,0.484
	c0.133,0.279,0.282,0.553,0.443,0.817c0.049,0.069,0.095,0.138,0.141,0.207c0.115,0.169,0.218,0.343,0.34,0.504
	c0.159,0.161,0.312,0.317,0.474,0.479c0.013,0.013,0.028,0.028,0.044,0.041c0.087,0.084,0.169,0.169,0.253,0.251l9.144,9.144v38.548
	l-14.339,34.048c-2.708,0.66-5.123,2.557-6.29,5.338c-1.431,3.402-0.694,7.171,1.572,9.731l173.606,173.609
	C392.965,494.162,472.804,423.45,501.01,330.296z"/>
<rect x="172.749" y="145.428" style="fill:#C1D354;" width="124.262" height="117.576"/>
<polygon style="fill:#D0E070;" points="297.021,145.428 297.021,183.155 273.91,183.155 273.91,151.972 "/>
<polygon style="fill:#A6B83D;" points="273.923,221.916 305.318,221.916 305.318,158.51 273.923,151.967 "/>
<polygon style="fill:#D0E070;" points="172.833,145.428 172.833,183.155 195.932,183.155 195.932,151.972 "/>
<polygon style="fill:#A6B83D;" points="195.924,221.916 164.529,221.916 164.529,158.51 195.924,151.967 "/>
<rect x="164.454" y="158.51" style="fill:#D0E070;" width="140.851" height="208.051"/>
<rect x="238.72" y="185.037" style="fill:#0575A5;" width="102.006" height="96.512"/>
<polygon style="fill:#0684BA;" points="340.728,185.024 340.728,215.99 321.759,215.99 321.759,190.395 "/>
<polygon style="fill:#03628A;" points="321.764,247.803 347.54,247.803 347.54,195.758 321.764,190.395 "/>
<polygon style="fill:#0684BA;" points="238.771,185.024 238.771,215.99 257.741,215.99 257.741,190.395 "/>
<polygon style="fill:#03628A;" points="257.733,247.803 231.954,247.803 231.954,195.758 257.733,190.395 "/>
<rect x="231.91" y="195.763" style="fill:#0684BA;" width="115.635" height="170.803"/>
<path style="fill:#FFFFFF;" d="M140.209,240.581v102.83c0,5.932,2.268,11.845,6.776,16.374c4.518,4.513,10.458,6.787,16.384,6.787
	h185.272c5.926,0,11.848-2.276,16.371-6.787c4.531-4.529,6.784-10.44,6.784-16.374v-102.83H140.209z M171.853,341.55
	c0,3.571-2.916,6.5-6.469,6.5c-3.574,0-6.505-2.931-6.505-6.5v-80.586c0-3.571,2.929-6.484,6.505-6.484
	c3.553,0,6.469,2.913,6.469,6.484V341.55z M202.068,341.55c0,3.571-2.916,6.5-6.482,6.5l0,0c-3.574,0-6.482-2.931-6.482-6.5v-80.586
	c0-3.571,2.908-6.484,6.482-6.484l0,0c3.569,0,6.482,2.913,6.482,6.484V341.55z M232.282,341.55c0,3.571-2.929,6.5-6.482,6.5
	c-3.581,0-6.487-2.931-6.487-6.5v-80.586c0-3.571,2.903-6.484,6.487-6.484c3.553,0,6.482,2.913,6.482,6.484V341.55z M262.49,341.55
	c0,3.571-2.929,6.5-6.492,6.5c-3.556,0-6.484-2.931-6.484-6.5v-80.586c0-3.571,2.929-6.484,6.484-6.484
	c3.566,0,6.492,2.913,6.492,6.484V341.55z M292.695,341.55c0,3.571-2.916,6.5-6.482,6.5c-3.566,0-6.487-2.931-6.487-6.5v-80.586
	c0-3.571,2.921-6.484,6.487-6.484c3.566,0,6.482,2.913,6.482,6.484V341.55z M322.903,341.55c0,3.571-2.908,6.5-6.474,6.5
	c-3.581,0-6.482-2.931-6.482-6.5v-80.586c0-3.571,2.9-6.484,6.482-6.484c3.569,0,6.474,2.913,6.474,6.484V341.55z M353.121,341.55
	c0,3.571-2.924,6.5-6.495,6.5c-3.564,0-6.477-2.931-6.477-6.5v-80.586c0-3.571,2.916-6.484,6.477-6.484
	c3.574,0,6.495,2.913,6.495,6.484V341.55z"/>
<rect x="140.209" y="240.589" style="fill:#E1EFFA;" width="231.603" height="6.098"/>
<path style="fill:#FF8E31;" d="M383.378,233.175c0,4.065-3.336,7.406-7.414,7.406H136.044c-4.081,0-7.416-3.341-7.416-7.406v-17.6
	c0-4.073,3.336-7.416,7.416-7.416h239.921c4.081,0,7.414,3.343,7.414,7.416L383.378,233.175L383.378,233.175z"/>
<path style="fill:#34495E;" d="M163.86,220.772c1.987-4.713,7.429-6.92,12.137-4.938c4.713,1.987,6.922,7.421,4.938,12.129
	c-1.987,4.721-7.416,6.925-12.129,4.951C164.086,230.927,161.874,225.492,163.86,220.772z"/>
<path style="fill:#FF8E31;" d="M119.59,325.755c1.984-4.713,7.427-6.92,12.134-4.933c4.71,1.981,6.922,7.416,4.928,12.132
	c-1.984,4.726-7.406,6.93-12.129,4.936C119.805,335.905,117.606,330.481,119.59,325.755z"/>
<path style="fill:#CEE2F2;" d="M123.003,327.206c-1.19,2.806,0.151,6.083,2.967,7.27l0,0c2.808,1.201,6.083-0.136,7.276-2.957
	l44.28-104.988c1.183-2.813-0.156-6.09-2.964-7.283l0,0c-2.816-1.185-6.095,0.151-7.291,2.959L123.003,327.206z"/>
<path style="fill:#34495E;" d="M348.142,220.772c-1.987-4.713-7.421-6.92-12.127-4.938c-4.721,1.987-6.932,7.421-4.938,12.129
	c1.979,4.721,7.414,6.925,12.122,4.951C347.924,230.927,350.131,225.492,348.142,220.772z"/>
<path style="fill:#FF8E31;" d="M392.41,325.755c-1.979-4.713-7.404-6.92-12.134-4.933c-4.7,1.981-6.912,7.416-4.925,12.132
	c1.981,4.726,7.411,6.93,12.129,4.936C392.192,335.905,394.404,330.481,392.41,325.755z"/>
<path style="fill:#CEE2F2;" d="M388.997,327.206c1.193,2.806-0.148,6.083-2.957,7.27l0,0c-2.824,1.201-6.088-0.136-7.283-2.957
	l-44.275-104.988c-1.185-2.813,0.148-6.09,2.965-7.283l0,0c2.816-1.185,6.09,0.151,7.291,2.959L388.997,327.206z"/>
</svg>